<svg xmlns="http://www.w3.org/2000/svg" xmlns:xlink="http://www.w3.org/1999/xlink" viewBox="0,0,256,256" width="64px"
    height="64px">
    <g fill="none" fill-rule="nonzero" stroke="none" stroke-width="1" stroke-linecap="butt" stroke-linejoin="miter"
        stroke-miterlimit="10" stroke-dasharray="" stroke-dashoffset="0" font-family="none" font-weight="none"
        font-size="none" text-anchor="none" style="mix-blend-mode: normal">
        <g transform="scale(0.5,0.5)">
            <path
                d="M7.9,256c0,-137 111.1,-248.1 248.1,-248.1c137,0 248.1,111.1 248.1,248.1c0,137 -111.1,248.1 -248.1,248.1c-137,0 -248.1,-111.1 -248.1,-248.1z"
                fill="#ff3249"></path>
            <path
                d="M408.1,206.8l-150.1,-74.9c-1.3,-0.6 -2.7,-0.6 -4,0l-150.2,74.9c-1.7,0.8 -2.7,2.4 -2.7,4.3v29.6c0,1.6 0.8,3.1 2.2,4c1.4,0.9 3.1,1 4.5,0.3l148.2,-74l148.1,74c0.6,0.3 1.3,0.5 2,0.5c0.9,0 1.8,-0.2 2.5,-0.7c1.4,-0.9 2.2,-2.4 2.2,-4v-29.8c0,-1.8 -1,-3.5 -2.7,-4.2z"
                fill="#ffffff"></path>
            <path d="M380.5,245.8l-124.5,-62l-124.5,62v115h69v-88.2h47.5v88.2h132.5z" fill="#ffffff"></path>
            <path d="M263.7,272.6h32v32h-32z" fill="#ea4949"></path>
        </g>
    </g>
</svg>